<svg width="228" height="68" viewBox="0 0 228 68" fill="none" xmlns="http://www.w3.org/2000/svg">
<g clip-path="url(#clip0_0_109)">
<path d="M0.140625 33.949L8.98344 25.5383V29.4156L4.21968 33.9417L8.98344 38.4823V42.367L0.140625 33.949ZM35.8178 64.0934L31.2799 59.7642H27.2008L35.8324 68L44.3328 59.7642H40.2902L35.8178 64.0934ZM62.6231 25.8808V29.7946L66.9279 33.9563L62.6231 38.1252V42.039L70.9778 33.949L62.6231 25.8808ZM35.8251 3.89925L40.8729 8.77513H44.9229L35.8397 0L26.6181 8.77513H30.6971L35.8251 3.89925ZM42.8833 17.3899H40.0644V20.2105H42.8833V17.3899ZM45.7095 17.3899H48.5285V51.2296H17.4693V17.3826H37.2309V25.8444H20.2955V28.6577H42.876V31.4782H20.2955V34.2915H42.876V37.1121H25.9407V45.5738H20.2955V48.3871H34.412V39.9254H42.876V48.3871H45.7022V17.3826L45.7095 17.3899ZM20.3028 23.0311H34.4193V20.2178H20.3028V23.0311ZM20.3028 42.7678H23.129V37.1267H20.3028V42.7678ZM40.0644 42.7678H37.2382V48.409H40.0644V42.7678ZM42.8833 23.0311H40.0644V25.8517H42.8833V23.0311ZM31.5931 39.9473H28.7742V42.7678H31.5931V39.9473ZM51.3547 51.2369H54.1736V17.3899H51.3547V51.2296V51.2369ZM11.8024 11.5957H59.8041V56.9436H11.8024V11.5957ZM14.6067 54.1376H57.0071V14.4017H14.6067V54.1376Z" fill="#C3996C"/>
<path d="M83.9143 41.1717L88.4231 31.9666H89.37L93.9298 41.1717H92.6915L91.4387 38.6937H86.3544L85.138 41.1717H83.9143ZM86.8789 37.6223H90.9288L88.8966 33.5481L86.8789 37.6223Z" fill="#6D6E70"/>
<path d="M100.449 41.1717V31.9666H101.585V40.1149H107.595V41.1717H100.449Z" fill="#6D6E70"/>
<path d="M114.048 41.1717V31.9666H115.104L118.819 37.6004L122.563 31.9666H123.605V41.1717H122.469V33.9854L118.819 39.4298L115.17 33.9854V41.1717H114.048Z" fill="#6D6E70"/>
<path d="M130.029 41.1717L134.538 31.9666H135.485L140.045 41.1717H138.799L137.547 38.6937H132.462L131.246 41.1717H130.022H130.029ZM132.994 37.6223H137.044L135.012 33.5481L132.994 37.6223Z" fill="#6D6E70"/>
<path d="M150.505 31.9666C151.954 31.9666 153.12 32.3966 154.009 33.2493C154.897 34.102 155.334 35.2171 155.334 36.5946C155.334 37.9721 154.897 39.0872 154.03 39.9181C153.156 40.749 151.984 41.1644 150.505 41.1644H146.564V31.9593H150.505V31.9666ZM150.505 33.0234H147.708V40.1076H150.505C151.634 40.1076 152.53 39.7869 153.178 39.1528C153.826 38.5187 154.154 37.6587 154.154 36.5728C154.154 35.4868 153.826 34.6487 153.164 34C152.501 33.3513 151.619 33.0234 150.505 33.0234Z" fill="#6D6E70"/>
<path d="M160.783 41.1717L165.291 31.9666H166.238L170.798 41.1717H169.553L168.307 38.6937H163.223L162.006 41.1717H160.783ZM163.747 37.6223H167.797L165.765 33.5481L163.747 37.6223Z" fill="#6D6E70"/>
<path d="M177.31 41.1717V31.9666H178.454V40.1149H184.463V41.1717H177.31Z" fill="#6D6E70"/>
<path d="M190.96 41.1717V31.9666H192.104V40.1149H198.113V41.1717H190.96Z" fill="#6D6E70"/>
<path d="M203.234 41.1717L207.743 31.9666H208.69L213.25 41.1717H212.004L210.758 38.6937H205.674L204.458 41.1717H203.234ZM206.199 37.6223H210.249L208.216 33.5481L206.199 37.6223Z" fill="#6D6E70"/>
<path d="M219.761 41.1717V31.9666H220.92V35.6034H226.346V31.9666H227.497V41.1717H226.346V36.6602H220.92V41.1717H219.761Z" fill="#6D6E70"/>
<path d="M83.9215 53.1464V47.5271H84.6281V49.75H87.9423V47.5271H88.6416V53.1464H87.9423V50.3914H84.6281V53.1464H83.9215Z" fill="#6D6E70"/>
<path d="M91.3804 53.1464V47.5271H95.7945V48.1758H92.0797V49.8229H94.3232V50.4716H92.0797V52.4977H96.0203V53.1464H91.3804Z" fill="#6D6E70"/>
<path d="M97.2659 53.1464L100.019 47.5344H100.602L103.384 53.1464H102.627L101.862 51.6377H98.7591L98.0162 53.1464H97.2659ZM99.0723 50.9818H101.542L100.303 48.4965L99.0723 50.9818Z" fill="#6D6E70"/>
<path d="M105.271 53.1464V47.5271H105.963V52.4977H109.627V53.1464H105.271Z" fill="#6D6E70"/>
<path d="M111.732 53.1464V48.1758H109.372V47.5271H114.799V48.1758H112.439V53.1464H111.732Z" fill="#6D6E70"/>
<path d="M116.139 53.1464V47.5271H116.845V49.75H120.152V47.5271H120.859V53.1464H120.152V50.3914H116.845V53.1464H116.139Z" fill="#6D6E70"/>
<path d="M128.077 51.3535L128.638 51.7689C128.383 52.2572 128.026 52.6289 127.582 52.8986C127.138 53.161 126.628 53.2922 126.06 53.2922C125.215 53.2922 124.523 53.0152 123.976 52.4613C123.43 51.9074 123.153 51.2077 123.153 50.355C123.153 49.5022 123.43 48.7953 123.976 48.2414C124.523 47.6875 125.222 47.4105 126.06 47.4105C126.577 47.4105 127.05 47.5271 127.48 47.753C127.91 47.979 128.252 48.307 128.522 48.7224L127.939 49.1378C127.764 48.8026 127.509 48.5402 127.174 48.3507C126.839 48.1612 126.468 48.0664 126.06 48.0664C125.426 48.0664 124.909 48.2851 124.494 48.7151C124.078 49.1451 123.874 49.6917 123.874 50.355C123.874 51.0182 124.078 51.5648 124.494 51.9948C124.909 52.4249 125.426 52.6435 126.06 52.6435C126.497 52.6435 126.89 52.5342 127.232 52.3155C127.575 52.0969 127.859 51.7762 128.077 51.3608" fill="#6D6E70"/>
<path d="M130.08 53.1464L132.834 47.5344H133.409L136.192 53.1464H135.434L134.669 51.6377H131.566L130.823 53.1464H130.073H130.08ZM131.887 50.9818H134.356L133.118 48.4965L131.887 50.9818Z" fill="#6D6E70"/>
<path d="M138.056 53.1464V47.5344H141.276C141.822 47.5344 142.252 47.6729 142.565 47.9498C142.879 48.2268 143.031 48.6058 143.031 49.0941C143.031 49.5022 142.908 49.8521 142.667 50.1363C142.42 50.4279 142.099 50.6028 141.698 50.6757L143.104 53.1464H142.332L140.926 50.6902H138.748V53.1464H138.049H138.056ZM138.756 50.0343H141.232C141.582 50.0343 141.851 49.9541 142.034 49.8011C142.216 49.648 142.303 49.4148 142.303 49.116C142.303 48.8171 142.216 48.5912 142.034 48.4236C141.851 48.2559 141.597 48.1758 141.269 48.1758H138.756V50.0343Z" fill="#6D6E70"/>
<path d="M145.348 53.1464V47.5271H149.762V48.1758H146.04V49.8229H148.291V50.4716H146.04V52.4977H149.988V53.1464H145.348Z" fill="#6D6E70"/>
<path d="M156.551 53.1464V47.5271H157.192L159.457 50.9672L161.744 47.5271H162.378V53.1464H161.686V48.7588L159.457 52.0823L157.235 48.7588V53.1464H156.551Z" fill="#6D6E70"/>
<path d="M164.221 53.1464L166.974 47.5344H167.55L170.332 53.1464H169.574L168.81 51.6377H165.707L164.964 53.1464H164.213H164.221ZM166.027 50.9818H168.496L167.258 48.4965L166.027 50.9818Z" fill="#6D6E70"/>
<path d="M172.226 53.1464V47.5271H172.59L176.232 51.7252V47.5271H176.931V53.1464H176.574L172.918 48.9483V53.1464H172.226Z" fill="#6D6E70"/>
<path d="M178.796 53.1464L181.549 47.5344H182.125L184.907 53.1464H184.15L183.385 51.6377H180.282L179.539 53.1464H178.789H178.796ZM180.603 50.9818H183.072L181.834 48.4965L180.603 50.9818Z" fill="#6D6E70"/>
<path d="M190.924 51.6231V50.7996H189.394V50.1509H191.623V51.8418C191.354 52.3082 190.997 52.6654 190.56 52.9205C190.123 53.1683 189.627 53.2922 189.081 53.2922C188.243 53.2922 187.544 53.0152 186.998 52.4613C186.452 51.9074 186.175 51.2077 186.175 50.355C186.175 49.5022 186.452 48.7953 186.998 48.2414C187.544 47.6875 188.243 47.4105 189.074 47.4105C189.591 47.4105 190.064 47.5271 190.494 47.753C190.924 47.979 191.266 48.307 191.536 48.7224L190.953 49.1378C190.778 48.8026 190.523 48.5402 190.188 48.3507C189.853 48.1612 189.482 48.0664 189.074 48.0664C188.44 48.0664 187.923 48.2851 187.508 48.7151C187.093 49.1451 186.889 49.6917 186.889 50.355C186.889 51.0182 187.093 51.5648 187.508 51.9948C187.923 52.4249 188.44 52.6435 189.074 52.6435C189.467 52.6435 189.817 52.556 190.123 52.3884C190.429 52.2208 190.691 51.9657 190.917 51.6304" fill="#6D6E70"/>
<path d="M194.1 53.1464V47.5271H198.514V48.1758H194.799V49.8229H197.043V50.4716H194.799V52.4977H198.74V53.1464H194.1Z" fill="#6D6E70"/>
<path d="M200.794 53.1464V47.5271H201.442L203.707 50.9672L205.987 47.5271H206.621V53.1464H205.936V48.7588L203.707 52.0823L201.479 48.7588V53.1464H200.794Z" fill="#6D6E70"/>
<path d="M209.309 53.1464V47.5271H213.723V48.1758H210.001V49.8229H212.252V50.4716H210.001V52.4977H213.949V53.1464H209.309Z" fill="#6D6E70"/>
<path d="M216.032 53.1464V47.5271H216.396L220.038 51.7252V47.5271H220.738V53.1464H220.381L216.731 48.9483V53.1464H216.032Z" fill="#6D6E70"/>
<path d="M224.431 53.1464V48.1758H222.07V47.5271H227.497V48.1758H225.13V53.1464H224.431Z" fill="#6D6E70"/>
<path d="M88.6999 18.2062C88.9038 18.2062 89.0787 18.1333 89.2243 17.9876C89.37 17.8418 89.4429 17.6669 89.4429 17.4628C89.4429 17.2587 89.37 17.0838 89.2243 16.938C89.0787 16.7923 88.9038 16.7194 88.6999 16.7194C88.4959 16.7194 88.3211 16.7923 88.1754 16.938C88.0298 17.0838 87.9569 17.2587 87.9569 17.4628C87.9569 17.6669 88.0298 17.8418 88.1754 17.9876C88.3211 18.1333 88.4959 18.2062 88.6999 18.2062Z" fill="#6D6E70"/>
<path d="M90.5136 18.2062C90.7176 18.2062 90.8924 18.1333 91.038 17.9876C91.1837 17.8418 91.2566 17.6669 91.2566 17.4628C91.2566 17.2587 91.1837 17.0838 91.038 16.938C90.8924 16.7923 90.7176 16.7194 90.5136 16.7194C90.3096 16.7194 90.1348 16.7923 89.9891 16.938C89.8435 17.0838 89.7706 17.2587 89.7706 17.4628C89.7706 17.6669 89.8435 17.8418 89.9891 17.9876C90.1348 18.1333 90.3096 18.2062 90.5136 18.2062Z" fill="#6D6E70"/>
<path d="M99.5968 17.3826C99.8007 17.3826 99.9756 17.3097 100.121 17.164C100.267 17.0182 100.34 16.8433 100.34 16.6392C100.34 16.4352 100.267 16.2602 100.121 16.1145C99.9756 15.9687 99.8007 15.8958 99.5968 15.8958C99.3928 15.8958 99.218 15.9687 99.0723 16.1145C98.9267 16.2602 98.8538 16.4352 98.8538 16.6392C98.8538 16.8433 98.9267 17.0182 99.0723 17.164C99.218 17.3097 99.3928 17.3826 99.5968 17.3826Z" fill="#6D6E70"/>
<path d="M112.876 25.4216C112.672 25.4216 112.497 25.4945 112.351 25.6403C112.205 25.7861 112.133 25.961 112.133 26.1651C112.133 26.3691 112.205 26.544 112.351 26.6898C112.497 26.8356 112.672 26.9085 112.876 26.9085C113.08 26.9085 113.254 26.8356 113.4 26.6898C113.546 26.544 113.619 26.3691 113.619 26.1651C113.619 25.961 113.546 25.7861 113.4 25.6403C113.254 25.4945 113.08 25.4216 112.876 25.4216Z" fill="#6D6E70"/>
<path d="M119.752 23.4538H117.333C117.333 23.4538 117.333 23.4538 117.326 23.4538C117.29 23.4538 117.261 23.4538 117.239 23.4538H116.416C116.241 23.2279 116.117 22.9509 116.051 22.6156C115.986 22.2804 115.928 21.9233 115.877 21.5515C115.826 21.1726 115.76 20.8009 115.687 20.4219C115.614 20.0429 115.476 19.7076 115.279 19.4015C115.083 19.1027 114.799 18.8549 114.442 18.6654C114.085 18.4759 113.604 18.3811 112.999 18.3811C112.606 18.3811 112.264 18.4176 111.972 18.4832C111.681 18.5561 111.448 18.6216 111.28 18.7018V19.5837C111.426 19.54 111.63 19.4817 111.892 19.4234C112.154 19.3651 112.468 19.3359 112.825 19.3359C113.225 19.3359 113.538 19.4088 113.764 19.5473C113.99 19.6857 114.165 19.8679 114.296 20.1012C114.42 20.3271 114.507 20.5895 114.551 20.8737C114.595 21.1653 114.638 21.4568 114.675 21.7702C114.711 22.0763 114.762 22.3824 114.82 22.674C114.879 22.9728 114.988 23.2352 115.134 23.4684H109.416C109.496 23.1623 109.539 22.827 109.539 22.4772C109.539 22.1419 109.489 21.7994 109.394 21.4495C109.299 21.0997 109.139 20.7863 108.913 20.502C108.687 20.2178 108.396 19.9846 108.032 19.8096C107.667 19.6347 107.223 19.5473 106.691 19.5473C106.218 19.5473 105.795 19.6201 105.424 19.7732C105.053 19.919 104.739 20.123 104.492 20.3708C104.244 20.6186 104.047 20.9175 103.924 21.26C103.8 21.6026 103.727 21.9597 103.727 22.3387C103.727 22.5355 103.741 22.725 103.763 22.9145C103.785 23.104 103.822 23.2862 103.865 23.4757H101.185C101.105 23.4757 101.003 23.4684 100.893 23.4465C100.784 23.4246 100.675 23.4028 100.58 23.3663C100.485 23.3299 100.405 23.2789 100.332 23.2206C100.267 23.1623 100.238 23.0894 100.238 23.0019V18.5196H99.0651V22.3751C99.0651 22.7687 99.0068 23.0457 98.8975 23.2206C98.7883 23.3955 98.5406 23.483 98.1546 23.483H96.1442C96.064 23.483 95.9621 23.4757 95.8528 23.4538C95.7435 23.4319 95.6343 23.4101 95.5396 23.3736C95.4449 23.3372 95.3575 23.2862 95.2919 23.2279C95.2264 23.1696 95.19 23.0967 95.19 23.0092V18.5269H94.0172V22.3824C94.0172 22.776 93.9589 23.0529 93.8497 23.2279C93.7404 23.4028 93.4928 23.4902 93.1067 23.4902H86.0631C85.6552 23.4902 85.3856 23.3809 85.2618 23.1696C85.138 22.9582 85.0724 22.6885 85.0724 22.3751V19.7951H83.8997V22.5428C83.8997 23.2424 84.0818 23.738 84.4533 24.0296C84.8248 24.3211 85.3055 24.4669 85.8955 24.4669H93.3689C93.8497 24.4669 94.2139 24.4013 94.4543 24.2774C94.6946 24.1535 94.8767 24.015 94.986 23.8619C95.1317 24.0879 95.3138 24.2409 95.525 24.3284C95.7363 24.4159 95.9693 24.4596 96.2461 24.4596H98.4095C98.8902 24.4596 99.2544 24.394 99.4948 24.2701C99.7352 24.1462 99.9173 24.0077 100.027 23.8547C100.172 24.0806 100.354 24.2336 100.566 24.3211C100.777 24.4086 101.017 24.4523 101.287 24.4523H104.164C104.266 24.7074 104.361 24.926 104.448 25.1301C104.535 25.3269 104.608 25.4872 104.666 25.6111H106.742C107.252 25.6111 107.697 25.5091 108.061 25.2977C108.432 25.0864 108.731 24.8094 108.979 24.4523H117.224C117.224 24.4523 117.275 24.4523 117.312 24.4523C117.312 24.4523 117.319 24.4523 117.326 24.4523H120.91V18.5196H119.737V23.4757L119.752 23.4538ZM108.243 23.2497C108.177 23.5048 108.075 23.7308 107.937 23.9348C107.799 24.1316 107.624 24.2992 107.405 24.4231C107.194 24.547 106.932 24.6126 106.64 24.6126H105.541C105.482 24.5033 105.424 24.3648 105.358 24.2118C105.293 24.0514 105.235 23.8765 105.169 23.6797C105.111 23.483 105.06 23.2789 105.016 23.0602C104.972 22.8416 104.951 22.6084 104.951 22.3678C104.951 22.0326 105.002 21.741 105.096 21.5005C105.191 21.26 105.322 21.0632 105.482 20.9102C105.643 20.7571 105.825 20.6478 106.036 20.5749C106.247 20.502 106.458 20.4729 106.67 20.4729C107.216 20.4729 107.631 20.6624 107.915 21.0341C108.199 21.4131 108.338 21.9014 108.338 22.4917C108.338 22.7468 108.308 22.9946 108.243 23.2497Z" fill="#6D6E70"/>
<path d="M120.298 15.9031C120.094 15.9031 119.919 15.976 119.774 16.1218C119.628 16.2675 119.555 16.4424 119.555 16.6465C119.555 16.8506 119.628 17.0255 119.774 17.1713C119.919 17.317 120.094 17.3899 120.298 17.3899C120.502 17.3899 120.677 17.317 120.822 17.1713C120.968 17.0255 121.041 16.8506 121.041 16.6465C121.041 16.4424 120.968 16.2675 120.822 16.1218C120.677 15.976 120.502 15.9031 120.298 15.9031Z" fill="#6D6E70"/>
<path d="M133.103 19.3286C132.878 19.0444 132.586 18.8111 132.222 18.6362C131.858 18.4613 131.413 18.3738 130.882 18.3738C130.408 18.3738 129.986 18.4467 129.614 18.5998C129.243 18.7455 128.93 18.9496 128.682 19.1974C128.434 19.4525 128.238 19.744 128.114 20.0866C127.99 20.4291 127.917 20.7863 127.917 21.1653C127.917 21.639 127.975 22.0763 128.099 22.4699C128.223 22.8634 128.332 23.1914 128.449 23.4538H125.433C125.025 23.4538 124.756 23.3591 124.639 23.1696C124.515 22.9801 124.457 22.7031 124.457 22.3387V14.3434H123.284V22.5063C123.284 23.206 123.467 23.7016 123.831 23.9931C124.195 24.2847 124.676 24.4304 125.266 24.4304H130.947C131.399 24.4304 131.807 24.343 132.156 24.1753C132.506 24.0077 132.797 23.7745 133.031 23.483C133.264 23.1987 133.438 22.8634 133.562 22.4845C133.686 22.1055 133.744 21.7119 133.744 21.3037C133.744 20.9685 133.693 20.6259 133.599 20.2761C133.504 19.9263 133.344 19.6129 133.118 19.3286M132.433 22.0909C132.368 22.346 132.266 22.5719 132.127 22.776C131.989 22.9801 131.814 23.1404 131.596 23.2643C131.384 23.3882 131.122 23.4538 130.831 23.4538H129.731C129.673 23.3445 129.614 23.206 129.549 23.0529C129.483 22.8926 129.425 22.7177 129.359 22.5209C129.301 22.3241 129.25 22.12 129.206 21.9014C129.163 21.6827 129.141 21.4495 129.141 21.209C129.141 20.8737 129.192 20.5822 129.287 20.3417C129.381 20.1012 129.512 19.9044 129.673 19.7513C129.833 19.5983 130.015 19.489 130.226 19.4161C130.437 19.3432 130.649 19.314 130.86 19.314C131.406 19.314 131.821 19.5035 132.105 19.8752C132.39 20.2542 132.528 20.7353 132.528 21.3329C132.528 21.5807 132.491 21.8358 132.433 22.0909Z" fill="#6D6E70"/>
<path d="M145.093 25.4508C144.889 25.4508 144.714 25.5237 144.568 25.6694C144.423 25.8152 144.35 25.9901 144.35 26.1942C144.35 26.3983 144.423 26.5732 144.568 26.719C144.714 26.8647 144.889 26.9376 145.093 26.9376C145.297 26.9376 145.472 26.8647 145.617 26.719C145.763 26.5732 145.836 26.3983 145.836 26.1942C145.836 25.9901 145.763 25.8152 145.617 25.6694C145.472 25.5237 145.297 25.4508 145.093 25.4508Z" fill="#6D6E70"/>
<path d="M146.899 25.4508C146.695 25.4508 146.521 25.5237 146.375 25.6694C146.229 25.8152 146.156 25.9901 146.156 26.1942C146.156 26.3983 146.229 26.5732 146.375 26.719C146.521 26.8647 146.695 26.9376 146.899 26.9376C147.103 26.9376 147.278 26.8647 147.424 26.719C147.569 26.5732 147.642 26.3983 147.642 26.1942C147.642 25.9901 147.569 25.8152 147.424 25.6694C147.278 25.5237 147.103 25.4508 146.899 25.4508Z" fill="#6D6E70"/>
<path d="M160.331 15.7063C160.535 15.7063 160.71 15.6334 160.855 15.4877C161.001 15.3419 161.074 15.167 161.074 14.9629C161.074 14.7588 161.001 14.5839 160.855 14.4382C160.71 14.2924 160.535 14.2195 160.331 14.2195C160.127 14.2195 159.952 14.2924 159.807 14.4382C159.661 14.5839 159.588 14.7588 159.588 14.9629C159.588 15.167 159.661 15.3419 159.807 15.4877C159.952 15.6334 160.127 15.7063 160.331 15.7063Z" fill="#6D6E70"/>
<path d="M160.469 16.6392C160.469 16.8433 160.542 17.0182 160.688 17.164C160.834 17.3097 161.008 17.3826 161.212 17.3826C161.416 17.3826 161.591 17.3097 161.737 17.164C161.883 17.0182 161.955 16.8433 161.955 16.6392C161.955 16.4352 161.883 16.2602 161.737 16.1145C161.591 15.9687 161.416 15.8958 161.212 15.8958C161.008 15.8958 160.834 15.9687 160.688 16.1145C160.542 16.2602 160.469 16.4352 160.469 16.6392Z" fill="#6D6E70"/>
<path d="M159.391 17.3826C159.595 17.3826 159.77 17.3097 159.916 17.164C160.062 17.0182 160.134 16.8433 160.134 16.6392C160.134 16.4352 160.062 16.2602 159.916 16.1145C159.77 15.9687 159.595 15.8958 159.391 15.8958C159.187 15.8958 159.013 15.9687 158.867 16.1145C158.721 16.2602 158.648 16.4352 158.648 16.6392C158.648 16.8433 158.721 17.0182 158.867 17.164C159.013 17.3097 159.187 17.3826 159.391 17.3826Z" fill="#6D6E70"/>
<path d="M171.228 25.4508C171.024 25.4508 170.849 25.5237 170.704 25.6694C170.558 25.8152 170.485 25.9901 170.485 26.1942C170.485 26.3983 170.558 26.5732 170.704 26.719C170.849 26.8647 171.024 26.9376 171.228 26.9376C171.432 26.9376 171.607 26.8647 171.752 26.719C171.898 26.5732 171.971 26.3983 171.971 26.1942C171.971 25.9901 171.898 25.8152 171.752 25.6694C171.607 25.5237 171.432 25.4508 171.228 25.4508Z" fill="#6D6E70"/>
<path d="M169.414 25.4508C169.21 25.4508 169.035 25.5237 168.89 25.6694C168.744 25.8152 168.671 25.9901 168.671 26.1942C168.671 26.3983 168.744 26.5732 168.89 26.719C169.035 26.8647 169.21 26.9376 169.414 26.9376C169.618 26.9376 169.793 26.8647 169.939 26.719C170.084 26.5732 170.157 26.3983 170.157 26.1942C170.157 25.9901 170.084 25.8152 169.939 25.6694C169.793 25.5237 169.618 25.4508 169.414 25.4508Z" fill="#6D6E70"/>
<path d="M180.828 19.591C180.544 19.2266 180.144 18.935 179.641 18.7164C179.138 18.4977 178.497 18.3884 177.703 18.3884C177.521 18.3884 177.303 18.3884 177.055 18.403C176.808 18.4176 176.553 18.4249 176.29 18.4394C176.028 18.454 175.773 18.4686 175.533 18.4832C175.292 18.4977 175.088 18.505 174.921 18.5196V19.3432C175.081 19.3359 175.22 19.3213 175.343 19.314C175.467 19.3067 175.591 19.2922 175.7 19.2849C175.3 19.4962 174.994 19.8242 174.783 20.2615C174.571 20.6988 174.462 21.1726 174.462 21.6827C174.462 21.9888 174.513 22.3022 174.608 22.6156C174.702 22.929 174.863 23.2133 175.074 23.4538H171.92C171.84 23.4538 171.738 23.4465 171.629 23.4246C171.519 23.4028 171.41 23.3809 171.315 23.3372C171.221 23.3007 171.133 23.2497 171.068 23.1914C171.002 23.1331 170.973 23.0602 170.973 22.9728V18.4905H169.8V22.346C169.8 22.7395 169.742 23.0165 169.633 23.1914C169.524 23.3663 169.276 23.4538 168.89 23.4538H166.879C166.799 23.4538 166.697 23.4465 166.588 23.4246C166.479 23.4028 166.37 23.3809 166.275 23.3372C166.18 23.3007 166.093 23.2497 166.027 23.1914C165.962 23.1331 165.932 23.0602 165.932 22.9728V14.3361H164.76V22.346C164.76 22.7395 164.701 23.0165 164.592 23.1914C164.483 23.3663 164.235 23.4538 163.849 23.4538H161.839C161.759 23.4538 161.657 23.4465 161.547 23.4246C161.438 23.4028 161.329 23.3809 161.234 23.3372C161.14 23.3007 161.052 23.2497 160.987 23.1914C160.921 23.1331 160.892 23.0602 160.892 22.9728V18.4905H159.719V22.346C159.719 22.7395 159.661 23.0165 159.552 23.1914C159.442 23.3663 159.195 23.4538 158.809 23.4538H156.886C156.806 23.4538 156.704 23.4465 156.594 23.4246C156.485 23.4028 156.383 23.3809 156.288 23.3372C156.194 23.3007 156.114 23.2497 156.048 23.1914C155.982 23.1331 155.946 23.0602 155.946 22.9728V21.69C155.946 21.0778 155.859 20.5603 155.677 20.1522C155.494 19.744 155.232 19.4161 154.89 19.1756C154.548 18.935 154.118 18.7601 153.615 18.6508C153.113 18.5415 152.544 18.4905 151.903 18.4905H150.84L154.103 14.9775L153.338 14.2632L149.39 18.4905V19.4234H151.816C152.326 19.4234 152.77 19.4671 153.149 19.54C153.528 19.6201 153.834 19.7513 154.067 19.9408C154.307 20.1303 154.482 20.3854 154.599 20.7061C154.715 21.0341 154.773 21.4349 154.773 21.916V22.3387C154.773 22.7323 154.715 23.0092 154.606 23.1841C154.497 23.3591 154.249 23.4465 153.863 23.4465H147.584C147.504 23.4465 147.402 23.4392 147.293 23.4174C147.183 23.3955 147.074 23.3736 146.979 23.3299C146.885 23.2935 146.797 23.2424 146.732 23.1841C146.666 23.1258 146.637 23.0529 146.637 22.9655V18.4832H145.464V22.3387C145.464 22.7323 145.406 23.0092 145.297 23.1841C145.188 23.3591 144.94 23.4465 144.554 23.4465H141.626V18.4905H140.453V24.1826C140.453 24.7803 140.344 25.2103 140.14 25.48C139.928 25.7496 139.535 25.8808 138.967 25.8808H138.814V26.8574H139.069C139.55 26.8574 139.958 26.7991 140.278 26.6752C140.606 26.5513 140.861 26.3837 141.05 26.1723C141.24 25.961 141.378 25.7059 141.465 25.4071C141.553 25.1082 141.597 24.7803 141.618 24.4159H144.831C145.311 24.4159 145.676 24.3503 145.916 24.2264C146.156 24.1025 146.331 23.964 146.448 23.8109C146.593 24.0369 146.775 24.1899 146.987 24.2774C147.198 24.3648 147.438 24.4086 147.708 24.4086H154.14C154.62 24.4086 154.985 24.343 155.225 24.2191C155.465 24.0952 155.64 23.9567 155.749 23.8036C155.902 24.0296 156.077 24.1826 156.288 24.2701C156.5 24.3576 156.74 24.4013 157.01 24.4013H159.078C159.559 24.4013 159.923 24.3357 160.164 24.2118C160.404 24.0879 160.579 23.9494 160.695 23.7964C160.841 24.0223 161.023 24.1753 161.234 24.2628C161.446 24.3503 161.686 24.394 161.955 24.394H164.119C164.599 24.394 164.964 24.3284 165.204 24.2045C165.444 24.0806 165.619 23.9421 165.736 23.7891C165.881 24.015 166.064 24.1681 166.275 24.2555C166.486 24.343 166.719 24.3867 166.996 24.3867H169.159C169.64 24.3867 170.004 24.3211 170.245 24.1972C170.485 24.0733 170.66 23.9348 170.776 23.7818C170.922 24.0077 171.104 24.1608 171.315 24.2482C171.527 24.3357 171.76 24.3794 172.036 24.3794H181.579V22.4189C181.579 21.8649 181.528 21.3329 181.418 20.8373C181.309 20.3417 181.112 19.9117 180.828 19.54M177.827 22.3022C177.769 22.5136 177.696 22.7031 177.594 22.8634C177.492 23.0238 177.361 23.155 177.208 23.2497C177.055 23.3445 176.88 23.3955 176.684 23.3955C176.494 23.3955 176.327 23.3445 176.181 23.2497C176.035 23.155 175.904 23.0165 175.795 22.8416C175.686 22.6667 175.606 22.4626 175.547 22.2294C175.489 21.9961 175.46 21.7483 175.46 21.4787C175.46 21.26 175.489 21.0414 175.54 20.8227C175.598 20.6114 175.679 20.4219 175.78 20.2615C175.89 20.1012 176.014 19.97 176.167 19.8752C176.312 19.7805 176.487 19.7295 176.684 19.7295C176.88 19.7295 177.055 19.7805 177.201 19.8752C177.347 19.97 177.478 20.1085 177.587 20.2834C177.696 20.4583 177.776 20.6624 177.827 20.8956C177.886 21.1288 177.915 21.3766 177.915 21.6463C177.915 21.8649 177.886 22.0836 177.827 22.3022ZM180.406 23.4028H178.286C178.49 23.1696 178.65 22.8926 178.76 22.5646C178.869 22.2367 178.927 21.8795 178.927 21.4787C178.927 20.9393 178.789 20.4656 178.512 20.0574C178.235 19.6493 177.886 19.3505 177.47 19.161H177.58C178.104 19.161 178.541 19.2412 178.898 19.3942C179.255 19.5473 179.546 19.7659 179.772 20.0356C179.998 20.3125 180.158 20.6405 180.253 21.0268C180.348 21.4131 180.399 21.8358 180.399 22.3022V23.4028H180.406Z" fill="#6D6E70"/>
<path d="M191.201 17.3826C191.405 17.3826 191.58 17.3097 191.725 17.164C191.871 17.0182 191.944 16.8433 191.944 16.6392C191.944 16.4352 191.871 16.2602 191.725 16.1145C191.58 15.9687 191.405 15.8958 191.201 15.8958C190.997 15.8958 190.822 15.9687 190.676 16.1145C190.531 16.2602 190.458 16.4352 190.458 16.6392C190.458 16.8433 190.531 17.0182 190.676 17.164C190.822 17.3097 190.997 17.3826 191.201 17.3826Z" fill="#6D6E70"/>
<path d="M189.387 17.3826C189.591 17.3826 189.766 17.3097 189.911 17.164C190.057 17.0182 190.13 16.8433 190.13 16.6392C190.13 16.4352 190.057 16.2602 189.911 16.1145C189.766 15.9687 189.591 15.8958 189.387 15.8958C189.183 15.8958 189.008 15.9687 188.863 16.1145C188.717 16.2602 188.644 16.4352 188.644 16.6392C188.644 16.8433 188.717 17.0182 188.863 17.164C189.008 17.3097 189.183 17.3826 189.387 17.3826Z" fill="#6D6E70"/>
<path d="M206.191 17.3826C206.395 17.3826 206.57 17.3097 206.716 17.164C206.861 17.0182 206.934 16.8433 206.934 16.6392C206.934 16.4352 206.861 16.2602 206.716 16.1145C206.57 15.9687 206.395 15.8958 206.191 15.8958C205.987 15.8958 205.813 15.9687 205.667 16.1145C205.521 16.2602 205.448 16.4352 205.448 16.6392C205.448 16.8433 205.521 17.0182 205.667 17.164C205.813 17.3097 205.987 17.3826 206.191 17.3826Z" fill="#6D6E70"/>
<path d="M222.85 23.4538H219.346C219.426 23.1477 219.47 22.8124 219.47 22.4626C219.47 22.1273 219.419 21.7848 219.324 21.4349C219.23 21.0851 219.069 20.7717 218.844 20.4875C218.618 20.2032 218.327 19.97 217.962 19.7951C217.598 19.6201 217.154 19.5327 216.622 19.5327C216.149 19.5327 215.726 19.6056 215.355 19.7586C214.983 19.9044 214.67 20.1085 214.422 20.3563C214.175 20.6041 213.978 20.9029 213.854 21.2454C213.73 21.588 213.657 21.9451 213.657 22.3241C213.657 22.5209 213.672 22.7104 213.694 22.8999C213.716 23.0894 213.752 23.2716 213.796 23.4611H211.203C211.115 23.4611 211.021 23.4538 210.904 23.4319C210.795 23.4101 210.686 23.3882 210.598 23.3518C210.503 23.3153 210.423 23.2643 210.358 23.206C210.292 23.1477 210.256 23.0748 210.256 22.9873V22.0107C210.256 21.5005 210.205 21.0268 210.103 20.5968C210.001 20.1668 209.811 19.7951 209.527 19.489C209.243 19.1828 208.857 18.9423 208.355 18.7674C207.859 18.5925 207.218 18.5123 206.439 18.5123C206.169 18.5123 205.871 18.5269 205.536 18.5633C205.201 18.5998 204.866 18.6362 204.531 18.6872C204.195 18.7383 203.875 18.7966 203.569 18.8549C203.263 18.9132 203.008 18.9715 202.804 19.0152V14.3507H201.632V23.4611H198.769C198.689 23.4611 198.587 23.4538 198.478 23.4319C198.368 23.4101 198.259 23.3882 198.164 23.3518C198.07 23.3153 197.982 23.2643 197.917 23.206C197.851 23.1477 197.822 23.0748 197.822 22.9873V14.3507H196.649V22.3606C196.649 22.7541 196.591 23.0311 196.482 23.206C196.372 23.3809 196.125 23.4684 195.739 23.4684H193.757C193.35 23.4684 193.08 23.3591 192.956 23.1477C192.832 22.9363 192.767 22.6667 192.767 22.3533V18.5561C192.636 18.5342 192.483 18.5196 192.301 18.4977C192.119 18.4759 191.929 18.4613 191.74 18.4467C191.543 18.4321 191.354 18.4249 191.172 18.4103C190.99 18.403 190.837 18.3957 190.713 18.3957C189.649 18.3957 188.812 18.6216 188.207 19.0662C187.602 19.5108 187.304 20.2178 187.304 21.1871C187.304 22.0034 187.573 22.6302 188.105 23.0529C188.637 23.4757 189.46 23.687 190.56 23.687H191.856C192.017 23.9567 192.235 24.1535 192.519 24.2628C192.803 24.3794 193.138 24.4377 193.532 24.4377H196.016C196.496 24.4377 196.86 24.3721 197.101 24.2482C197.341 24.1243 197.516 23.9858 197.633 23.8328C197.778 24.0587 197.96 24.2118 198.172 24.2992C198.383 24.3867 198.623 24.4304 198.893 24.4304H208.442C208.923 24.4304 209.287 24.3648 209.527 24.2409C209.768 24.117 209.943 23.9786 210.059 23.8255C210.212 24.0514 210.387 24.2045 210.598 24.292C210.809 24.3794 211.05 24.4231 211.319 24.4231H214.102C214.204 24.6782 214.298 24.8969 214.386 25.101C214.473 25.2977 214.546 25.4581 214.604 25.582H216.68C217.19 25.582 217.635 25.48 217.999 25.2686C218.37 25.0572 218.669 24.7803 218.909 24.4231H224.015V14.3361H222.843V23.4465L222.85 23.4538ZM191.609 22.7395H190.786C190.057 22.7395 189.504 22.6084 189.11 22.346C188.717 22.0836 188.528 21.6609 188.528 21.0632C188.528 20.4291 188.717 19.9773 189.103 19.7076C189.489 19.4379 190.006 19.3067 190.662 19.3067C190.705 19.3067 190.822 19.3067 191.004 19.3213C191.186 19.3286 191.39 19.3505 191.609 19.3796V22.7395ZM209.09 22.346C209.09 22.7395 209.032 23.0165 208.923 23.1914C208.814 23.3663 208.566 23.4538 208.18 23.4538H202.812V19.8971C203.015 19.8388 203.256 19.7878 203.525 19.7368C203.795 19.6857 204.079 19.6347 204.385 19.591C204.691 19.5473 204.989 19.5108 205.288 19.4817C205.587 19.4525 205.878 19.4379 206.162 19.4379C206.745 19.4379 207.233 19.4962 207.604 19.6129C207.983 19.7295 208.282 19.9044 208.508 20.1376C208.733 20.3708 208.886 20.6624 208.967 21.0122C209.054 21.3621 209.09 21.7702 209.09 22.2512V22.3606V22.346ZM218.159 23.2424C218.093 23.4975 217.991 23.7235 217.853 23.9275C217.715 24.1243 217.54 24.292 217.321 24.4159C217.11 24.5398 216.848 24.6054 216.556 24.6054H215.457C215.398 24.496 215.34 24.3576 215.275 24.2045C215.209 24.0442 215.151 23.8692 215.085 23.6724C215.027 23.4757 214.976 23.2716 214.932 23.0529C214.888 22.8343 214.867 22.6011 214.867 22.3606C214.867 22.0253 214.918 21.7338 215.012 21.4932C215.107 21.2527 215.238 21.0559 215.398 20.9029C215.559 20.7498 215.741 20.6405 215.952 20.5676C216.163 20.4947 216.374 20.4656 216.586 20.4656C217.132 20.4656 217.547 20.6551 217.831 21.0268C218.115 21.4058 218.254 21.8941 218.254 22.4845C218.254 22.7395 218.225 22.9873 218.159 23.2424Z" fill="#6D6E70"/>
<path d="M227.497 14.3361H226.324V24.4231H227.497V14.3361Z" fill="#6D6E70"/>
</g>
<defs>
<clipPath id="clip0_0_109">
<rect width="227.356" height="68" fill="white" transform="translate(0.140625)"/>
</clipPath>
</defs>
</svg>
