<svg width="228" height="68" viewBox="0 0 228 68" fill="none" xmlns="http://www.w3.org/2000/svg">
<g clip-path="url(#clip0_0_109)">
<path d="M0.140625 33.949L8.98344 25.5383V29.4156L4.21968 33.9417L8.98344 38.4823V42.367L0.140625 33.949ZM35.8178 64.0934L31.2799 59.7642H27.2008L35.8324 68L44.3328 59.7642H40.2902L35.8178 64.0934ZM62.6231 25.8808V29.7946L66.9279 33.9563L62.6231 38.1252V42.039L70.9778 33.949L62.6231 25.8808ZM35.8251 3.89925L40.8729 8.77513H44.9229L35.8397 0L26.6181 8.77513H30.6971L35.8251 3.89925ZM42.8833 17.3899H40.0644V20.2105H42.8833V17.3899ZM45.7095 17.3899H48.5285V51.2296H17.4693V17.3826H37.2309V25.8444H20.2955V28.6577H42.876V31.4782H20.2955V34.2915H42.876V37.1121H25.9407V45.5738H20.2955V48.3871H34.412V39.9254H42.876V48.3871H45.7022V17.3826L45.7095 17.3899ZM20.3028 23.0311H34.4193V20.2178H20.3028V23.0311ZM20.3028 42.7678H23.129V37.1267H20.3028V42.7678ZM40.0644 42.7678H37.2382V48.409H40.0644V42.7678ZM42.8833 23.0311H40.0644V25.8517H42.8833V23.0311ZM31.5931 39.9473H28.7742V42.7678H31.5931V39.9473ZM51.3547 51.2369H54.1736V17.3899H51.3547V51.2296V51.2369ZM11.8024 11.5957H59.8041V56.9436H11.8024V11.5957ZM14.6067 54.1376H57.0071V14.4017H14.6067V54.1376Z" fill="#C3996C"/>
<path d="M83.9143 41.1717L88.4231 31.9666H89.37L93.9298 41.1717H92.6915L91.4387 38.6937H86.3544L85.138 41.1717H83.9143ZM86.8789 37.6223H90.9288L88.8966 33.5481L86.8789 37.6223Z" fill="#6D6E70"/>
<path d="M100.449 41.1717V31.9666H101.585V40.1149H107.595V41.1717H100.449Z" fill="#6D6E70"/>
<path d="M114.048 41.1717V31.9666H115.104L118.819 37.6004L122.563 31.9666H123.605V41.1717H122.469V33.9854L118.819 39.4298L115.17 33.9854V41.1717H114.048Z" fill="#6D6E70"/>
<path d="M130.029 41.1717L134.538 31.9666H135.485L140.045 41.1717H138.799L137.547 38.6937H132.462L131.246 41.1717H130.022H130.029ZM132.994 37.6223H137.044L135.012 33.5481L132.994 37.6223Z" fill="#6D6E70"/>
<path d="M150.505 31.9666C151.954 31.9666 153.12 32.3966 154.009 33.2493C154.897 34.102 155.334 35.2171 155.334 36.5946C155.334 37.9721 154.897 39.0872 154.03 39.9181C153.156 40.749 151.984 41.1644 150.505 41.1644H146.564V31.9593H150.505V31.9666ZM150.505 33.0234H147.708V40.1076H150.505C151.634 40.1076 152.53 39.7869 153.178 39.1528C153.826 38.5187 154.154 37.6587 154.154 36.5728C154.154 35.4868 153.826 34.6487 153.164 34C152.501 33.3513 151.619 33.0234 150.505 33.0234Z" fill="#6D6E70"/>
<path d="M160.783 41.1717L165.291 31.9666H166.238L170.798 41.1717H169.553L168.307 38.6937H163.223L162.006 41.1717H160.783ZM163.747 37.6223H167.797L165.765 33.5481L163.747 37.6223Z" fill="#6D6E70"/>
<path d="M177.31 41.1717V31.9666H178.454V40.1149H184.463V41.1717H177.31Z" fill="#6D6E70"/>
<path d="M190.96 41.1717V31.9666H192.104V40.1149H198.113V41.1717H190.96Z" fill="#6D6E70"/>
<path d="M203.234 41.1717L207.743 31.9666H208.69L213.25 41.1717H212.004L210.758 38.6937H205.674L204.458 41.1717H203.234ZM206.199 37.6223H210.249L208.216 33.5481L206.199 37.6223Z" fill="#6D6E70"/>
<path d="M219.761 41.1717V31.9666H220.92V35.6034H226.346V31.9666H227.497V41.1717H226.346V36.6602H220.92V41.1717H219.761Z" fill="#6D6E70"/>
<path d="M83.9215 53.1464V47.5271H84.6281V49.75H87.9423V47.5271H88.6416V53.1464H87.9423V50.3914H84.6281V53.1464H83.9215Z" fill="#6D6E70"/>
<path d="M91.3804 53.1464V47.5271H95.7945V48.1758H92.0797V49.8229H94.3232V50.4716H92.0797V52.4977H96.0203V53.1464H91.3804Z" fill="#6D6E70"/>
<path d="M97.2659 53.1464L100.019 47.5344H100.602L103.384 53.1464H102.627L101.862 51.6377H98.7591L98.0162 53.1464H97.2659ZM99.0723 50.9818H101.542L100.303 48.4965L99.0723 50.9818Z" fill="#6D6E70"/>
<path d="M105.271 53.1464V47.5271H105.963V52.4977H109.627V53.1464H105.271Z" fill="#6D6E70"/>
<path d="M111.732 53.1464V48.1758H109.372V47.5271H114.799V48.1758H112.439V53.1464H111.732Z" fill="#6D6E70"/>
<path d="M116.139 53.1464V47.5271H116.845V49.75H120.152V47.5271H120.859V53.1464H120.152V50.3914H116.845V53.1464H116.139Z" fill="#6D6E70"/>
<path d="M128.077 51.3535L128.638 51.7689C128.383 52.2572 128.026 52.6289 127.582 52.8986C127.138 53.161 126.628 53.2922 126.06 53.2922C125.215 53.2922 124.523 53.0152 123.976 52.4613C123.43 51.9074 123.153 51.2077 123.153 50.355C123.153 49.5022 123.43 48.7953 123.976 48.2414C124.523 47.6875 125.222 47.4105 126.06 47.4105C126.577 47.4105 127.05 47.5271 127.48 47.753C127.91 47.979 128.252 48.307 128.522 48.7224L127.939 49.1378C127.764 48.8026 127.509 48.5402 127.174 48.3507C126.839 48.1612 126.468 48.0664 126.06 48.0664C125.426 48.0664 124.909 48.2851 124.494 48.7151C124.078 49.1451 123.874 49.6917 123.874 50.355C123.874 51.0182 124.078 51.5648 124.494 51.9948C124.909 52.4249 125.426 52.6435 126.06 52.6435C126.497 52.6435 126.89 52.5342 127.232 52.3155C127.575 52.0969 127.859 51.7762 128.077 51.3608" fill="#6D6E70"/>
<path d="M130.08 53.1464L132.834 47.5344H133.409L136.192 53.1464H135.434L134.669 51.6377H131.566L130.823 53.1464H130.073H130.08ZM131.887 50.9818H134.356L133.118 48.4965L131.887 50.9818Z" fill="#6D6E70"/>
<path d="M138.056 53.1464V47.5344H141.276C141.822 47.5344 142.252 47.6729 142.565 47.9498C142.879 48.2268 143.031 48.6058 143.031 49.0941C143.031 49.5022 142.908 49.8521 142.667 50.1363C142.42 50.4279 142.099 50.6028 141.698 50.6757L143.104 53.1464H142.332L140.926 50.6902H138.748V53.1464H138.049H138.056ZM138.756 50.0343H141.232C141.582 50.0343 141.851 49.9541 142.034 49.8011C142.216 49.648 142.303 49.4148 142.303 49.116C142.303 48.8171 142.216 48.5912 142.034 48.4236C141.851 48.2559 141.597 48.1758 141.269 48.1758H138.756V50.0343Z" fill="#6D6E70"/>
<path d="M145.348 53.1464V47.5271H149.762V48.1758H146.04V49.8229H148.291V50.4716H146.04V52.4977H149.988V53.1464H145.348Z" fill="#6D6E70"/>
<path d="M156.551 53.1464V47.5271H157.192L159.457 50.9672L161.744 47.5271H162.378V53.1464H161.686V48.7588L159.457 52.0823L157.235 48.7588V53.1464H156.551Z" fill="#6D6E70"/>
<path d="M164.221 53.1464L166.974 47.5344H167.55L170.332 53.1464H169.574L168.81 51.6377H165.707L164.964 53.1464H164.213H164.221ZM166.027 50.9818H168.496L167.258 48.4965L166.027 50.9818Z" fill="#6D6E70"/>
<path d="M172.226 53.1464V47.5271H172.59L176.232 51.7252V47.5271H176.931V53.1464H176.574L172.918 48.9483V53.1464H172.226Z" fill="#6D6E70"/>
<path d="M178.796 53.1464L181.549 47.5344H182.125L184.907 53.1464H184.15L183.385 51.6377H180.282L179.539 53.1464H178.789H178.796ZM180.603 50.9818H183.072L181.834 48.4965L180.603 50.9818Z" fill="#6D6E70"/>
<path d="M190.924 51.6231V50.7996H189.394V50.1509H191.623V51.8418C191.354 52.3082 190.997 52.6654 190.56 52.9205C190.123 53.1683 189.627 53.2922 189.081 53.2922C188.243 53.2922 187.544 53.0152 186.998 52.4613C186.452 51.9074 186.175 51.2077 186.175 50.355C186.175 49.5022 186.452 48.7953 186.998 48.2414C187.544 47.6875 188.243 47.4105 189.074 47.4105C189.591 47.4105 190.064 47.5271 190.494 47.753C190.924 47.979 191.266 48.307 191.536 48.7224L190.953 49.1378C190.778 48.8026 190.523 48.5402 190.188 48.3507C189.853 48.1612 189.482 48.0664 189.074 48.0664C188.44 48.0664 187.923 48.2851 187.508 48.7151C187.093 49.1451 186.889 49.6917 186.889 50.355C186.889 51.0182 187.093 51.5648 187.508 51.9948C187.923 52.4249 188.44 52.6435 189.074 52.6435C189.467 52.6435 189.817 52.556 190.123 52.3884C190.429 52.2208 190.691 51.9657 190.917 51.6304" fill="#6D6E70"/>
<path d="M194.1 53.1464V47.5271H198.514V48.1758H194.799V49.8229H197.043V50.4716H194.799V52.4977H198.74V53.1464H194.1Z" fill="#6D6E70"/>
<path d="M200.794 53.1464V47.5271H201.442L203.707 50.9672L205.987 47.5271H206.621V53.1464H205.936V48.7588L203.707 52.0823L201.479 48.7588V53.1464H200.794Z" fill="#6D6E70"/>
<path d="M209.309 53.1464V47.5271H213.723V48.1758H210.001V49.8229H212.252V50.4716H210.001V52.4977H213.949V53.1464H209.309Z" fill="#6D6E70"/>
<path d="M216.032 53.1464V47.5271H216.396L220.038 51.7252V47.5271H220.738V53.1464H220.381L216.731 48.9483V53.1464H216.032Z" fill="#6D6E70"/>
<path d="M224.431 53.1464V48.1758H222.07V47.5271H227.497V48.1758H225.13V53.1464H224.431Z" fill="#6D6E70"/>
</g>
<defs>
<clipPath id="clip0_0_109">
<rect width="227.356" height="68" fill="white" transform="translate(0.140625)"/>
</clipPath>
</defs>
</svg>
